<mxfile host="app.diagrams.net" modified="2023-11-28T13:25:51.219Z" agent="Mozilla/5.0 (Macintosh; Intel Mac OS X 10_15_7) AppleWebKit/537.36 (KHTML, like Gecko) Chrome/119.0.0.0 Safari/537.36" etag="NcP4B9Hlo57S_WlIappP" version="22.1.4" type="github" pages="5">
  <diagram id="X3DVEW5BYX4qvy4fk-GM" name="diagram-1">
    <mxGraphModel dx="1038" dy="482" grid="1" gridSize="10" guides="1" tooltips="1" connect="1" arrows="1" fold="1" page="1" pageScale="1" pageWidth="827" pageHeight="1169" math="0" shadow="0">
      <root>
        <mxCell id="0" />
        <mxCell id="1" parent="0" />
        <mxCell id="o6-BJeKhK2OIw5TzAYKB-1" value="PROFESOR" style="rounded=1;whiteSpace=wrap;html=1;fontFamily=Helvetica;fontSize=11;fontColor=default;" vertex="1" parent="1">
          <mxGeometry x="550" y="520" width="90" height="40" as="geometry" />
        </mxCell>
        <mxCell id="o6-BJeKhK2OIw5TzAYKB-33" style="edgeStyle=none;shape=connector;rounded=0;orthogonalLoop=1;jettySize=auto;html=1;exitX=0.975;exitY=0.034;exitDx=0;exitDy=0;entryX=0;entryY=1;entryDx=0;entryDy=0;labelBackgroundColor=default;strokeColor=default;align=center;verticalAlign=middle;fontFamily=Helvetica;fontSize=11;fontColor=default;endArrow=none;endFill=0;exitPerimeter=0;" edge="1" parent="1" source="o6-BJeKhK2OIw5TzAYKB-2" target="o6-BJeKhK2OIw5TzAYKB-23">
          <mxGeometry relative="1" as="geometry" />
        </mxCell>
        <mxCell id="o6-BJeKhK2OIw5TzAYKB-34" style="edgeStyle=none;shape=connector;rounded=0;orthogonalLoop=1;jettySize=auto;html=1;exitX=0;exitY=0.25;exitDx=0;exitDy=0;entryX=1;entryY=0.5;entryDx=0;entryDy=0;labelBackgroundColor=default;strokeColor=default;align=center;verticalAlign=middle;fontFamily=Helvetica;fontSize=11;fontColor=default;endArrow=none;endFill=0;" edge="1" parent="1" source="o6-BJeKhK2OIw5TzAYKB-2" target="o6-BJeKhK2OIw5TzAYKB-11">
          <mxGeometry relative="1" as="geometry" />
        </mxCell>
        <mxCell id="o6-BJeKhK2OIw5TzAYKB-41" style="edgeStyle=none;shape=connector;rounded=0;orthogonalLoop=1;jettySize=auto;html=1;exitX=1;exitY=0.5;exitDx=0;exitDy=0;entryX=0;entryY=0.5;entryDx=0;entryDy=0;labelBackgroundColor=default;strokeColor=default;align=center;verticalAlign=middle;fontFamily=Helvetica;fontSize=11;fontColor=default;endArrow=none;endFill=0;" edge="1" parent="1" source="o6-BJeKhK2OIw5TzAYKB-2" target="o6-BJeKhK2OIw5TzAYKB-22">
          <mxGeometry relative="1" as="geometry" />
        </mxCell>
        <mxCell id="o6-BJeKhK2OIw5TzAYKB-2" value="ASIGNATURA" style="rounded=1;whiteSpace=wrap;html=1;fontFamily=Helvetica;fontSize=11;fontColor=default;" vertex="1" parent="1">
          <mxGeometry x="160" y="520" width="90" height="40" as="geometry" />
        </mxCell>
        <mxCell id="o6-BJeKhK2OIw5TzAYKB-3" value="CURSO" style="rounded=1;whiteSpace=wrap;html=1;fontFamily=Helvetica;fontSize=11;fontColor=default;" vertex="1" parent="1">
          <mxGeometry x="560" y="240" width="80" height="40" as="geometry" />
        </mxCell>
        <mxCell id="o6-BJeKhK2OIw5TzAYKB-27" style="edgeStyle=none;shape=connector;rounded=0;orthogonalLoop=1;jettySize=auto;html=1;exitX=0.5;exitY=0;exitDx=0;exitDy=0;entryX=0.5;entryY=1;entryDx=0;entryDy=0;labelBackgroundColor=default;strokeColor=default;align=center;verticalAlign=middle;fontFamily=Helvetica;fontSize=11;fontColor=default;endArrow=none;endFill=0;" edge="1" parent="1" source="o6-BJeKhK2OIw5TzAYKB-4" target="o6-BJeKhK2OIw5TzAYKB-15">
          <mxGeometry relative="1" as="geometry" />
        </mxCell>
        <mxCell id="o6-BJeKhK2OIw5TzAYKB-4" value="ALUMNO" style="rounded=1;whiteSpace=wrap;html=1;fontFamily=Helvetica;fontSize=11;fontColor=default;" vertex="1" parent="1">
          <mxGeometry x="160" y="240" width="80" height="40" as="geometry" />
        </mxCell>
        <mxCell id="o6-BJeKhK2OIw5TzAYKB-6" value="CORREO" style="ellipse;whiteSpace=wrap;html=1;fontFamily=Helvetica;fontSize=11;fontColor=default;" vertex="1" parent="1">
          <mxGeometry x="680" y="480" width="73" height="30" as="geometry" />
        </mxCell>
        <mxCell id="o6-BJeKhK2OIw5TzAYKB-7" value="NOMBRE" style="ellipse;whiteSpace=wrap;html=1;fontFamily=Helvetica;fontSize=11;fontColor=default;" vertex="1" parent="1">
          <mxGeometry x="570" y="620" width="70" height="30" as="geometry" />
        </mxCell>
        <mxCell id="o6-BJeKhK2OIw5TzAYKB-8" value="&lt;u&gt;DNI&lt;/u&gt;" style="ellipse;whiteSpace=wrap;html=1;fontFamily=Helvetica;fontSize=11;fontColor=default;" vertex="1" parent="1">
          <mxGeometry x="683.5" y="540" width="53" height="30" as="geometry" />
        </mxCell>
        <mxCell id="o6-BJeKhK2OIw5TzAYKB-9" value="APELLIDOS" style="ellipse;whiteSpace=wrap;html=1;fontFamily=Helvetica;fontSize=11;fontColor=default;" vertex="1" parent="1">
          <mxGeometry x="670" y="600" width="93" height="30" as="geometry" />
        </mxCell>
        <mxCell id="o6-BJeKhK2OIw5TzAYKB-10" value="&lt;u&gt;NOMBRE&lt;/u&gt;" style="ellipse;whiteSpace=wrap;html=1;fontFamily=Helvetica;fontSize=11;fontColor=default;" vertex="1" parent="1">
          <mxGeometry x="160" y="600" width="70" height="40" as="geometry" />
        </mxCell>
        <mxCell id="o6-BJeKhK2OIw5TzAYKB-11" value="TOTAL_HORAS" style="ellipse;whiteSpace=wrap;html=1;fontFamily=Helvetica;fontSize=11;fontColor=default;" vertex="1" parent="1">
          <mxGeometry y="520" width="110" height="30" as="geometry" />
        </mxCell>
        <mxCell id="o6-BJeKhK2OIw5TzAYKB-38" style="edgeStyle=none;shape=connector;rounded=0;orthogonalLoop=1;jettySize=auto;html=1;exitX=1;exitY=0;exitDx=0;exitDy=0;labelBackgroundColor=default;strokeColor=default;align=center;verticalAlign=middle;fontFamily=Helvetica;fontSize=11;fontColor=default;endArrow=none;endFill=0;entryX=0.036;entryY=0.98;entryDx=0;entryDy=0;entryPerimeter=0;" edge="1" parent="1" source="o6-BJeKhK2OIw5TzAYKB-12" target="o6-BJeKhK2OIw5TzAYKB-2">
          <mxGeometry relative="1" as="geometry">
            <mxPoint x="150" y="580" as="targetPoint" />
          </mxGeometry>
        </mxCell>
        <mxCell id="o6-BJeKhK2OIw5TzAYKB-12" value="HORAS_SEMANA" style="ellipse;whiteSpace=wrap;html=1;fontFamily=Helvetica;fontSize=11;fontColor=default;" vertex="1" parent="1">
          <mxGeometry y="600" width="120" height="30" as="geometry" />
        </mxCell>
        <mxCell id="o6-BJeKhK2OIw5TzAYKB-13" value="&lt;u&gt;NOMBRE&lt;/u&gt;" style="ellipse;whiteSpace=wrap;html=1;fontFamily=Helvetica;fontSize=11;fontColor=default;" vertex="1" parent="1">
          <mxGeometry x="670" y="200" width="80" height="30" as="geometry" />
        </mxCell>
        <mxCell id="o6-BJeKhK2OIw5TzAYKB-14" value="FECHA_NACIM" style="ellipse;whiteSpace=wrap;html=1;fontFamily=Helvetica;fontSize=11;fontColor=default;" vertex="1" parent="1">
          <mxGeometry x="110" y="320" width="100" height="30" as="geometry" />
        </mxCell>
        <mxCell id="o6-BJeKhK2OIw5TzAYKB-15" value="CORREO" style="ellipse;whiteSpace=wrap;html=1;fontFamily=Helvetica;fontSize=11;fontColor=default;" vertex="1" parent="1">
          <mxGeometry x="170" y="160" width="70" height="30" as="geometry" />
        </mxCell>
        <mxCell id="o6-BJeKhK2OIw5TzAYKB-16" value="&lt;u&gt;DNI&lt;/u&gt;" style="ellipse;whiteSpace=wrap;html=1;fontFamily=Helvetica;fontSize=11;fontColor=default;" vertex="1" parent="1">
          <mxGeometry x="90" y="160" width="50" height="30" as="geometry" />
        </mxCell>
        <mxCell id="o6-BJeKhK2OIw5TzAYKB-17" value="APELLIDOS" style="ellipse;whiteSpace=wrap;html=1;fontFamily=Helvetica;fontSize=11;fontColor=default;" vertex="1" parent="1">
          <mxGeometry x="10" y="210" width="80" height="30" as="geometry" />
        </mxCell>
        <mxCell id="o6-BJeKhK2OIw5TzAYKB-18" value="NOMBRE" style="ellipse;whiteSpace=wrap;html=1;fontFamily=Helvetica;fontSize=11;fontColor=default;" vertex="1" parent="1">
          <mxGeometry x="10" y="270" width="80" height="30" as="geometry" />
        </mxCell>
        <mxCell id="o6-BJeKhK2OIw5TzAYKB-25" style="edgeStyle=none;shape=connector;rounded=0;orthogonalLoop=1;jettySize=auto;html=1;exitX=1;exitY=0.5;exitDx=0;exitDy=0;entryX=0;entryY=0.5;entryDx=0;entryDy=0;labelBackgroundColor=default;strokeColor=default;align=center;verticalAlign=middle;fontFamily=Helvetica;fontSize=11;fontColor=default;endArrow=none;endFill=0;" edge="1" parent="1" source="o6-BJeKhK2OIw5TzAYKB-19" target="o6-BJeKhK2OIw5TzAYKB-3">
          <mxGeometry relative="1" as="geometry" />
        </mxCell>
        <mxCell id="o6-BJeKhK2OIw5TzAYKB-26" style="edgeStyle=none;shape=connector;rounded=0;orthogonalLoop=1;jettySize=auto;html=1;exitX=0;exitY=0.5;exitDx=0;exitDy=0;labelBackgroundColor=default;strokeColor=default;align=center;verticalAlign=middle;fontFamily=Helvetica;fontSize=11;fontColor=default;endArrow=none;endFill=0;" edge="1" parent="1" source="o6-BJeKhK2OIw5TzAYKB-19" target="o6-BJeKhK2OIw5TzAYKB-4">
          <mxGeometry relative="1" as="geometry" />
        </mxCell>
        <mxCell id="o6-BJeKhK2OIw5TzAYKB-19" value="MATRICULA" style="rhombus;whiteSpace=wrap;html=1;fontFamily=Helvetica;fontSize=11;fontColor=default;" vertex="1" parent="1">
          <mxGeometry x="360" y="240" width="120" height="40" as="geometry" />
        </mxCell>
        <mxCell id="o6-BJeKhK2OIw5TzAYKB-42" style="edgeStyle=none;shape=connector;rounded=0;orthogonalLoop=1;jettySize=auto;html=1;exitX=1;exitY=0.5;exitDx=0;exitDy=0;entryX=0;entryY=0.5;entryDx=0;entryDy=0;labelBackgroundColor=default;strokeColor=default;align=center;verticalAlign=middle;fontFamily=Helvetica;fontSize=11;fontColor=default;endArrow=none;endFill=0;" edge="1" parent="1" source="o6-BJeKhK2OIw5TzAYKB-22" target="o6-BJeKhK2OIw5TzAYKB-1">
          <mxGeometry relative="1" as="geometry" />
        </mxCell>
        <mxCell id="o6-BJeKhK2OIw5TzAYKB-22" value="IMPARTIDA" style="rhombus;whiteSpace=wrap;html=1;fontFamily=Helvetica;fontSize=11;fontColor=default;" vertex="1" parent="1">
          <mxGeometry x="359" y="520" width="121" height="40" as="geometry" />
        </mxCell>
        <mxCell id="o6-BJeKhK2OIw5TzAYKB-23" value="CONTIENE" style="rhombus;whiteSpace=wrap;html=1;fontFamily=Helvetica;fontSize=11;fontColor=default;" vertex="1" parent="1">
          <mxGeometry x="360" y="380" width="120" height="40" as="geometry" />
        </mxCell>
        <mxCell id="o6-BJeKhK2OIw5TzAYKB-24" style="shape=connector;rounded=0;orthogonalLoop=1;jettySize=auto;html=1;entryX=0.021;entryY=0.652;entryDx=0;entryDy=0;entryPerimeter=0;labelBackgroundColor=default;strokeColor=default;align=center;verticalAlign=middle;fontFamily=Helvetica;fontSize=11;fontColor=default;endArrow=none;endFill=0;exitX=0.974;exitY=0.033;exitDx=0;exitDy=0;exitPerimeter=0;" edge="1" parent="1" source="o6-BJeKhK2OIw5TzAYKB-3" target="o6-BJeKhK2OIw5TzAYKB-13">
          <mxGeometry relative="1" as="geometry">
            <mxPoint x="640" y="240" as="sourcePoint" />
          </mxGeometry>
        </mxCell>
        <mxCell id="o6-BJeKhK2OIw5TzAYKB-28" style="edgeStyle=none;shape=connector;rounded=0;orthogonalLoop=1;jettySize=auto;html=1;exitX=0.024;exitY=0.039;exitDx=0;exitDy=0;entryX=0.65;entryY=0.975;entryDx=0;entryDy=0;entryPerimeter=0;labelBackgroundColor=default;strokeColor=default;align=center;verticalAlign=middle;fontFamily=Helvetica;fontSize=11;fontColor=default;endArrow=none;endFill=0;exitPerimeter=0;" edge="1" parent="1" source="o6-BJeKhK2OIw5TzAYKB-4" target="o6-BJeKhK2OIw5TzAYKB-16">
          <mxGeometry relative="1" as="geometry" />
        </mxCell>
        <mxCell id="o6-BJeKhK2OIw5TzAYKB-29" style="edgeStyle=none;shape=connector;rounded=0;orthogonalLoop=1;jettySize=auto;html=1;exitX=0;exitY=0.25;exitDx=0;exitDy=0;entryX=0.982;entryY=0.627;entryDx=0;entryDy=0;entryPerimeter=0;labelBackgroundColor=default;strokeColor=default;align=center;verticalAlign=middle;fontFamily=Helvetica;fontSize=11;fontColor=default;endArrow=none;endFill=0;" edge="1" parent="1" source="o6-BJeKhK2OIw5TzAYKB-4" target="o6-BJeKhK2OIw5TzAYKB-17">
          <mxGeometry relative="1" as="geometry" />
        </mxCell>
        <mxCell id="o6-BJeKhK2OIw5TzAYKB-30" style="edgeStyle=none;shape=connector;rounded=0;orthogonalLoop=1;jettySize=auto;html=1;exitX=0;exitY=0.75;exitDx=0;exitDy=0;entryX=1;entryY=0.459;entryDx=0;entryDy=0;entryPerimeter=0;labelBackgroundColor=default;strokeColor=default;align=center;verticalAlign=middle;fontFamily=Helvetica;fontSize=11;fontColor=default;endArrow=none;endFill=0;" edge="1" parent="1" source="o6-BJeKhK2OIw5TzAYKB-4" target="o6-BJeKhK2OIw5TzAYKB-18">
          <mxGeometry relative="1" as="geometry" />
        </mxCell>
        <mxCell id="o6-BJeKhK2OIw5TzAYKB-31" style="edgeStyle=none;shape=connector;rounded=0;orthogonalLoop=1;jettySize=auto;html=1;exitX=0.25;exitY=1;exitDx=0;exitDy=0;entryX=0.651;entryY=0.027;entryDx=0;entryDy=0;entryPerimeter=0;labelBackgroundColor=default;strokeColor=default;align=center;verticalAlign=middle;fontFamily=Helvetica;fontSize=11;fontColor=default;endArrow=none;endFill=0;" edge="1" parent="1" source="o6-BJeKhK2OIw5TzAYKB-4" target="o6-BJeKhK2OIw5TzAYKB-14">
          <mxGeometry relative="1" as="geometry" />
        </mxCell>
        <mxCell id="o6-BJeKhK2OIw5TzAYKB-32" style="edgeStyle=none;shape=connector;rounded=0;orthogonalLoop=1;jettySize=auto;html=1;exitX=1;exitY=0;exitDx=0;exitDy=0;labelBackgroundColor=default;strokeColor=default;align=center;verticalAlign=middle;fontFamily=Helvetica;fontSize=11;fontColor=default;endArrow=none;endFill=0;" edge="1" parent="1" source="o6-BJeKhK2OIw5TzAYKB-23">
          <mxGeometry relative="1" as="geometry">
            <mxPoint x="570" y="280" as="targetPoint" />
          </mxGeometry>
        </mxCell>
        <mxCell id="o6-BJeKhK2OIw5TzAYKB-40" style="edgeStyle=none;shape=connector;rounded=0;orthogonalLoop=1;jettySize=auto;html=1;exitX=0.5;exitY=0;exitDx=0;exitDy=0;entryX=0.446;entryY=0.999;entryDx=0;entryDy=0;entryPerimeter=0;labelBackgroundColor=default;strokeColor=default;align=center;verticalAlign=middle;fontFamily=Helvetica;fontSize=11;fontColor=default;endArrow=none;endFill=0;" edge="1" parent="1" source="o6-BJeKhK2OIw5TzAYKB-10" target="o6-BJeKhK2OIw5TzAYKB-2">
          <mxGeometry relative="1" as="geometry" />
        </mxCell>
        <mxCell id="o6-BJeKhK2OIw5TzAYKB-43" style="edgeStyle=none;shape=connector;rounded=0;orthogonalLoop=1;jettySize=auto;html=1;exitX=0.5;exitY=0;exitDx=0;exitDy=0;entryX=0.563;entryY=0.992;entryDx=0;entryDy=0;entryPerimeter=0;labelBackgroundColor=default;strokeColor=default;align=center;verticalAlign=middle;fontFamily=Helvetica;fontSize=11;fontColor=default;endArrow=none;endFill=0;" edge="1" parent="1" source="o6-BJeKhK2OIw5TzAYKB-7" target="o6-BJeKhK2OIw5TzAYKB-1">
          <mxGeometry relative="1" as="geometry" />
        </mxCell>
        <mxCell id="o6-BJeKhK2OIw5TzAYKB-44" style="edgeStyle=none;shape=connector;rounded=0;orthogonalLoop=1;jettySize=auto;html=1;exitX=0;exitY=0;exitDx=0;exitDy=0;entryX=0.971;entryY=0.979;entryDx=0;entryDy=0;entryPerimeter=0;labelBackgroundColor=default;strokeColor=default;align=center;verticalAlign=middle;fontFamily=Helvetica;fontSize=11;fontColor=default;endArrow=none;endFill=0;" edge="1" parent="1" source="o6-BJeKhK2OIw5TzAYKB-9" target="o6-BJeKhK2OIw5TzAYKB-1">
          <mxGeometry relative="1" as="geometry" />
        </mxCell>
        <mxCell id="o6-BJeKhK2OIw5TzAYKB-45" style="edgeStyle=none;shape=connector;rounded=0;orthogonalLoop=1;jettySize=auto;html=1;exitX=0;exitY=0.5;exitDx=0;exitDy=0;entryX=1;entryY=0.709;entryDx=0;entryDy=0;entryPerimeter=0;labelBackgroundColor=default;strokeColor=default;align=center;verticalAlign=middle;fontFamily=Helvetica;fontSize=11;fontColor=default;endArrow=none;endFill=0;" edge="1" parent="1" source="o6-BJeKhK2OIw5TzAYKB-8" target="o6-BJeKhK2OIw5TzAYKB-1">
          <mxGeometry relative="1" as="geometry" />
        </mxCell>
        <mxCell id="o6-BJeKhK2OIw5TzAYKB-46" style="edgeStyle=none;shape=connector;rounded=0;orthogonalLoop=1;jettySize=auto;html=1;exitX=0;exitY=0.5;exitDx=0;exitDy=0;entryX=0.974;entryY=0.029;entryDx=0;entryDy=0;entryPerimeter=0;labelBackgroundColor=default;strokeColor=default;align=center;verticalAlign=middle;fontFamily=Helvetica;fontSize=11;fontColor=default;endArrow=none;endFill=0;" edge="1" parent="1" source="o6-BJeKhK2OIw5TzAYKB-6" target="o6-BJeKhK2OIw5TzAYKB-1">
          <mxGeometry relative="1" as="geometry" />
        </mxCell>
        <mxCell id="o6-BJeKhK2OIw5TzAYKB-47" value="N:1" style="text;html=1;align=center;verticalAlign=middle;resizable=0;points=[];autosize=1;strokeColor=none;fillColor=none;fontSize=11;fontFamily=Helvetica;fontColor=default;" vertex="1" parent="1">
          <mxGeometry x="400" y="210" width="40" height="30" as="geometry" />
        </mxCell>
        <mxCell id="o6-BJeKhK2OIw5TzAYKB-48" value="1:N" style="text;html=1;align=center;verticalAlign=middle;resizable=0;points=[];autosize=1;strokeColor=none;fillColor=none;fontSize=11;fontFamily=Helvetica;fontColor=default;" vertex="1" parent="1">
          <mxGeometry x="270" y="230" width="40" height="30" as="geometry" />
        </mxCell>
        <mxCell id="o6-BJeKhK2OIw5TzAYKB-49" value="1:1" style="text;html=1;align=center;verticalAlign=middle;resizable=0;points=[];autosize=1;strokeColor=none;fillColor=none;fontSize=11;fontFamily=Helvetica;fontColor=default;" vertex="1" parent="1">
          <mxGeometry x="500" y="230" width="40" height="30" as="geometry" />
        </mxCell>
        <mxCell id="o6-BJeKhK2OIw5TzAYKB-50" value="1:N" style="text;html=1;align=center;verticalAlign=middle;resizable=0;points=[];autosize=1;strokeColor=none;fillColor=none;fontSize=11;fontFamily=Helvetica;fontColor=default;" vertex="1" parent="1">
          <mxGeometry x="400" y="350" width="40" height="30" as="geometry" />
        </mxCell>
        <mxCell id="o6-BJeKhK2OIw5TzAYKB-51" value="1:1" style="text;html=1;align=center;verticalAlign=middle;resizable=0;points=[];autosize=1;strokeColor=none;fillColor=none;fontSize=11;fontFamily=Helvetica;fontColor=default;" vertex="1" parent="1">
          <mxGeometry x="270" y="450" width="40" height="30" as="geometry" />
        </mxCell>
        <mxCell id="o6-BJeKhK2OIw5TzAYKB-52" value="1:N" style="text;html=1;align=center;verticalAlign=middle;resizable=0;points=[];autosize=1;strokeColor=none;fillColor=none;fontSize=11;fontFamily=Helvetica;fontColor=default;" vertex="1" parent="1">
          <mxGeometry x="480" y="310" width="40" height="30" as="geometry" />
        </mxCell>
        <mxCell id="o6-BJeKhK2OIw5TzAYKB-53" value="1:1" style="text;html=1;align=center;verticalAlign=middle;resizable=0;points=[];autosize=1;strokeColor=none;fillColor=none;fontSize=11;fontFamily=Helvetica;fontColor=default;" vertex="1" parent="1">
          <mxGeometry x="280" y="510" width="40" height="30" as="geometry" />
        </mxCell>
        <mxCell id="o6-BJeKhK2OIw5TzAYKB-54" value="1:1" style="text;html=1;align=center;verticalAlign=middle;resizable=0;points=[];autosize=1;strokeColor=none;fillColor=none;fontSize=11;fontFamily=Helvetica;fontColor=default;" vertex="1" parent="1">
          <mxGeometry x="399.5" y="490" width="40" height="30" as="geometry" />
        </mxCell>
        <mxCell id="o6-BJeKhK2OIw5TzAYKB-55" value="1:1" style="text;html=1;align=center;verticalAlign=middle;resizable=0;points=[];autosize=1;strokeColor=none;fillColor=none;fontSize=11;fontFamily=Helvetica;fontColor=default;" vertex="1" parent="1">
          <mxGeometry x="500" y="510" width="40" height="30" as="geometry" />
        </mxCell>
      </root>
    </mxGraphModel>
  </diagram>
  <diagram id="5eXyxq9cC3N7np4djnAs" name="diagram-2">
    <mxGraphModel dx="1327" dy="616" grid="1" gridSize="10" guides="1" tooltips="1" connect="1" arrows="1" fold="1" page="1" pageScale="1" pageWidth="827" pageHeight="1169" math="0" shadow="0">
      <root>
        <mxCell id="0" />
        <mxCell id="1" parent="0" />
        <mxCell id="lP0ul0niU7gLkVlTcKBf-20" style="edgeStyle=none;shape=connector;rounded=0;orthogonalLoop=1;jettySize=auto;html=1;exitX=0.25;exitY=0;exitDx=0;exitDy=0;entryX=0.5;entryY=1;entryDx=0;entryDy=0;labelBackgroundColor=default;strokeColor=default;align=center;verticalAlign=middle;fontFamily=Helvetica;fontSize=11;fontColor=default;endArrow=none;endFill=0;" edge="1" parent="1" source="lP0ul0niU7gLkVlTcKBf-1" target="lP0ul0niU7gLkVlTcKBf-9">
          <mxGeometry relative="1" as="geometry" />
        </mxCell>
        <mxCell id="lP0ul0niU7gLkVlTcKBf-24" style="edgeStyle=none;shape=connector;rounded=0;orthogonalLoop=1;jettySize=auto;html=1;exitX=1;exitY=0.5;exitDx=0;exitDy=0;entryX=0;entryY=0.5;entryDx=0;entryDy=0;labelBackgroundColor=default;strokeColor=default;align=center;verticalAlign=middle;fontFamily=Helvetica;fontSize=11;fontColor=default;endArrow=none;endFill=0;" edge="1" parent="1" source="lP0ul0niU7gLkVlTcKBf-1" target="lP0ul0niU7gLkVlTcKBf-5">
          <mxGeometry relative="1" as="geometry" />
        </mxCell>
        <mxCell id="lP0ul0niU7gLkVlTcKBf-1" value="PROVEEDOR" style="rounded=1;whiteSpace=wrap;html=1;fontFamily=Helvetica;fontSize=11;fontColor=default;" vertex="1" parent="1">
          <mxGeometry x="160" y="160" width="120" height="40" as="geometry" />
        </mxCell>
        <mxCell id="lP0ul0niU7gLkVlTcKBf-2" value="CATEGORIA" style="rounded=1;whiteSpace=wrap;html=1;fontFamily=Helvetica;fontSize=11;fontColor=default;" vertex="1" parent="1">
          <mxGeometry x="600" y="400" width="120" height="40" as="geometry" />
        </mxCell>
        <mxCell id="lP0ul0niU7gLkVlTcKBf-4" value="PIEZA" style="rounded=1;whiteSpace=wrap;html=1;fontFamily=Helvetica;fontSize=11;fontColor=default;" vertex="1" parent="1">
          <mxGeometry x="600" y="160" width="120" height="40" as="geometry" />
        </mxCell>
        <mxCell id="lP0ul0niU7gLkVlTcKBf-18" style="edgeStyle=none;shape=connector;rounded=0;orthogonalLoop=1;jettySize=auto;html=1;exitX=0.5;exitY=1;exitDx=0;exitDy=0;entryX=0.5;entryY=0;entryDx=0;entryDy=0;labelBackgroundColor=default;strokeColor=default;align=center;verticalAlign=middle;fontFamily=Helvetica;fontSize=11;fontColor=default;endArrow=none;endFill=0;" edge="1" parent="1" source="lP0ul0niU7gLkVlTcKBf-5">
          <mxGeometry relative="1" as="geometry">
            <mxPoint x="440" y="280" as="targetPoint" />
          </mxGeometry>
        </mxCell>
        <mxCell id="lP0ul0niU7gLkVlTcKBf-5" value="SUMINISTRA" style="rhombus;whiteSpace=wrap;html=1;fontFamily=Helvetica;fontSize=11;fontColor=default;" vertex="1" parent="1">
          <mxGeometry x="380" y="160" width="120" height="40" as="geometry" />
        </mxCell>
        <mxCell id="lP0ul0niU7gLkVlTcKBf-29" style="edgeStyle=none;shape=connector;rounded=0;orthogonalLoop=1;jettySize=auto;html=1;exitX=0.5;exitY=0;exitDx=0;exitDy=0;labelBackgroundColor=default;strokeColor=default;align=center;verticalAlign=middle;fontFamily=Helvetica;fontSize=11;fontColor=default;endArrow=none;endFill=0;entryX=0.5;entryY=1;entryDx=0;entryDy=0;" edge="1" parent="1" source="lP0ul0niU7gLkVlTcKBf-6" target="lP0ul0niU7gLkVlTcKBf-4">
          <mxGeometry relative="1" as="geometry">
            <mxPoint x="659.9756097560976" y="220" as="targetPoint" />
          </mxGeometry>
        </mxCell>
        <mxCell id="lP0ul0niU7gLkVlTcKBf-30" style="edgeStyle=none;shape=connector;rounded=0;orthogonalLoop=1;jettySize=auto;html=1;exitX=0.5;exitY=1;exitDx=0;exitDy=0;labelBackgroundColor=default;strokeColor=default;align=center;verticalAlign=middle;fontFamily=Helvetica;fontSize=11;fontColor=default;endArrow=none;endFill=0;entryX=0.5;entryY=0;entryDx=0;entryDy=0;" edge="1" parent="1" source="lP0ul0niU7gLkVlTcKBf-6" target="lP0ul0niU7gLkVlTcKBf-2">
          <mxGeometry relative="1" as="geometry">
            <mxPoint x="660.0132450331126" y="390" as="targetPoint" />
          </mxGeometry>
        </mxCell>
        <mxCell id="lP0ul0niU7gLkVlTcKBf-6" value="PERTENECE" style="rhombus;whiteSpace=wrap;html=1;fontFamily=Helvetica;fontSize=11;fontColor=default;" vertex="1" parent="1">
          <mxGeometry x="600" y="280" width="120" height="40" as="geometry" />
        </mxCell>
        <mxCell id="lP0ul0niU7gLkVlTcKBf-23" style="edgeStyle=none;shape=connector;rounded=0;orthogonalLoop=1;jettySize=auto;html=1;exitX=1;exitY=0;exitDx=0;exitDy=0;labelBackgroundColor=default;strokeColor=default;align=center;verticalAlign=middle;fontFamily=Helvetica;fontSize=11;fontColor=default;endArrow=none;endFill=0;entryX=0.25;entryY=1;entryDx=0;entryDy=0;" edge="1" parent="1" source="lP0ul0niU7gLkVlTcKBf-7" target="lP0ul0niU7gLkVlTcKBf-1">
          <mxGeometry relative="1" as="geometry">
            <mxPoint x="160" y="220" as="targetPoint" />
          </mxGeometry>
        </mxCell>
        <mxCell id="lP0ul0niU7gLkVlTcKBf-7" value="PROVINCIA" style="ellipse;whiteSpace=wrap;html=1;fontFamily=Helvetica;fontSize=11;fontColor=default;" vertex="1" parent="1">
          <mxGeometry x="40" y="240" width="80" height="40" as="geometry" />
        </mxCell>
        <mxCell id="lP0ul0niU7gLkVlTcKBf-8" value="CIUDAD" style="ellipse;whiteSpace=wrap;html=1;fontFamily=Helvetica;fontSize=11;fontColor=default;" vertex="1" parent="1">
          <mxGeometry x="40" y="180" width="80" height="40" as="geometry" />
        </mxCell>
        <mxCell id="lP0ul0niU7gLkVlTcKBf-9" value="DIRECCION" style="ellipse;whiteSpace=wrap;html=1;fontFamily=Helvetica;fontSize=11;fontColor=default;" vertex="1" parent="1">
          <mxGeometry x="160" y="80" width="80" height="40" as="geometry" />
        </mxCell>
        <mxCell id="lP0ul0niU7gLkVlTcKBf-10" value="NOMBRE" style="ellipse;whiteSpace=wrap;html=1;fontFamily=Helvetica;fontSize=11;fontColor=default;" vertex="1" parent="1">
          <mxGeometry x="40" y="120" width="80" height="40" as="geometry" />
        </mxCell>
        <mxCell id="lP0ul0niU7gLkVlTcKBf-11" value="&lt;u&gt;CODIGO&lt;/u&gt;" style="ellipse;whiteSpace=wrap;html=1;fontFamily=Helvetica;fontSize=11;fontColor=default;" vertex="1" parent="1">
          <mxGeometry x="600" y="80" width="80" height="40" as="geometry" />
        </mxCell>
        <mxCell id="lP0ul0niU7gLkVlTcKBf-26" style="edgeStyle=none;shape=connector;rounded=0;orthogonalLoop=1;jettySize=auto;html=1;exitX=0;exitY=0.5;exitDx=0;exitDy=0;entryX=1;entryY=0.5;entryDx=0;entryDy=0;labelBackgroundColor=default;strokeColor=default;align=center;verticalAlign=middle;fontFamily=Helvetica;fontSize=11;fontColor=default;endArrow=none;endFill=0;" edge="1" parent="1" source="lP0ul0niU7gLkVlTcKBf-12" target="lP0ul0niU7gLkVlTcKBf-4">
          <mxGeometry relative="1" as="geometry" />
        </mxCell>
        <mxCell id="lP0ul0niU7gLkVlTcKBf-12" value="PRECIO" style="ellipse;whiteSpace=wrap;html=1;fontFamily=Helvetica;fontSize=11;fontColor=default;" vertex="1" parent="1">
          <mxGeometry x="747" y="160" width="80" height="40" as="geometry" />
        </mxCell>
        <mxCell id="lP0ul0niU7gLkVlTcKBf-13" value="NOMBRE" style="ellipse;whiteSpace=wrap;html=1;fontFamily=Helvetica;fontSize=11;fontColor=default;" vertex="1" parent="1">
          <mxGeometry x="700" y="80" width="80" height="40" as="geometry" />
        </mxCell>
        <mxCell id="lP0ul0niU7gLkVlTcKBf-15" value="CANTIDAD" style="ellipse;whiteSpace=wrap;html=1;fontFamily=Helvetica;fontSize=11;fontColor=default;" vertex="1" parent="1">
          <mxGeometry x="400" y="280" width="80" height="40" as="geometry" />
        </mxCell>
        <mxCell id="lP0ul0niU7gLkVlTcKBf-16" value="&lt;u&gt;NOMBRE&lt;/u&gt;" style="ellipse;whiteSpace=wrap;html=1;fontFamily=Helvetica;fontSize=11;fontColor=default;" vertex="1" parent="1">
          <mxGeometry x="480" y="440" width="80" height="40" as="geometry" />
        </mxCell>
        <mxCell id="lP0ul0niU7gLkVlTcKBf-21" style="edgeStyle=none;shape=connector;rounded=0;orthogonalLoop=1;jettySize=auto;html=1;exitX=0.014;exitY=0.044;exitDx=0;exitDy=0;entryX=0.995;entryY=0.592;entryDx=0;entryDy=0;entryPerimeter=0;labelBackgroundColor=default;strokeColor=default;align=center;verticalAlign=middle;fontFamily=Helvetica;fontSize=11;fontColor=default;endArrow=none;endFill=0;exitPerimeter=0;" edge="1" parent="1" source="lP0ul0niU7gLkVlTcKBf-1" target="lP0ul0niU7gLkVlTcKBf-10">
          <mxGeometry relative="1" as="geometry" />
        </mxCell>
        <mxCell id="lP0ul0niU7gLkVlTcKBf-22" style="edgeStyle=none;shape=connector;rounded=0;orthogonalLoop=1;jettySize=auto;html=1;exitX=1;exitY=0.5;exitDx=0;exitDy=0;entryX=-0.001;entryY=0.853;entryDx=0;entryDy=0;entryPerimeter=0;labelBackgroundColor=default;strokeColor=default;align=center;verticalAlign=middle;fontFamily=Helvetica;fontSize=11;fontColor=default;endArrow=none;endFill=0;" edge="1" parent="1" source="lP0ul0niU7gLkVlTcKBf-8" target="lP0ul0niU7gLkVlTcKBf-1">
          <mxGeometry relative="1" as="geometry" />
        </mxCell>
        <mxCell id="lP0ul0niU7gLkVlTcKBf-25" style="edgeStyle=none;shape=connector;rounded=0;orthogonalLoop=1;jettySize=auto;html=1;exitX=1;exitY=0.5;exitDx=0;exitDy=0;entryX=0;entryY=0.5;entryDx=0;entryDy=0;labelBackgroundColor=default;strokeColor=default;align=center;verticalAlign=middle;fontFamily=Helvetica;fontSize=11;fontColor=default;endArrow=none;endFill=0;" edge="1" parent="1" source="lP0ul0niU7gLkVlTcKBf-5" target="lP0ul0niU7gLkVlTcKBf-4">
          <mxGeometry relative="1" as="geometry" />
        </mxCell>
        <mxCell id="lP0ul0niU7gLkVlTcKBf-27" style="edgeStyle=none;shape=connector;rounded=0;orthogonalLoop=1;jettySize=auto;html=1;exitX=0.982;exitY=0.03;exitDx=0;exitDy=0;entryX=0.353;entryY=0.975;entryDx=0;entryDy=0;entryPerimeter=0;labelBackgroundColor=default;strokeColor=default;align=center;verticalAlign=middle;fontFamily=Helvetica;fontSize=11;fontColor=default;endArrow=none;endFill=0;exitPerimeter=0;" edge="1" parent="1" source="lP0ul0niU7gLkVlTcKBf-4" target="lP0ul0niU7gLkVlTcKBf-13">
          <mxGeometry relative="1" as="geometry" />
        </mxCell>
        <mxCell id="lP0ul0niU7gLkVlTcKBf-28" style="edgeStyle=none;shape=connector;rounded=0;orthogonalLoop=1;jettySize=auto;html=1;exitX=0.5;exitY=1;exitDx=0;exitDy=0;entryX=0.343;entryY=-0.007;entryDx=0;entryDy=0;entryPerimeter=0;labelBackgroundColor=default;strokeColor=default;align=center;verticalAlign=middle;fontFamily=Helvetica;fontSize=11;fontColor=default;endArrow=none;endFill=0;" edge="1" parent="1" source="lP0ul0niU7gLkVlTcKBf-11" target="lP0ul0niU7gLkVlTcKBf-4">
          <mxGeometry relative="1" as="geometry" />
        </mxCell>
        <mxCell id="lP0ul0niU7gLkVlTcKBf-31" style="edgeStyle=none;shape=connector;rounded=0;orthogonalLoop=1;jettySize=auto;html=1;exitX=1;exitY=0.5;exitDx=0;exitDy=0;entryX=0.002;entryY=0.911;entryDx=0;entryDy=0;entryPerimeter=0;labelBackgroundColor=default;strokeColor=default;align=center;verticalAlign=middle;fontFamily=Helvetica;fontSize=11;fontColor=default;endArrow=none;endFill=0;" edge="1" parent="1" source="lP0ul0niU7gLkVlTcKBf-16" target="lP0ul0niU7gLkVlTcKBf-2">
          <mxGeometry relative="1" as="geometry" />
        </mxCell>
        <mxCell id="lP0ul0niU7gLkVlTcKBf-32" value="1:N" style="text;html=1;align=center;verticalAlign=middle;resizable=0;points=[];autosize=1;strokeColor=none;fillColor=none;fontSize=11;fontFamily=Helvetica;fontColor=default;" vertex="1" parent="1">
          <mxGeometry x="310" y="158" width="40" height="30" as="geometry" />
        </mxCell>
        <mxCell id="lP0ul0niU7gLkVlTcKBf-33" value="1:1" style="text;html=1;align=center;verticalAlign=middle;resizable=0;points=[];autosize=1;strokeColor=none;fillColor=none;fontSize=11;fontFamily=Helvetica;fontColor=default;" vertex="1" parent="1">
          <mxGeometry x="630" y="340" width="40" height="30" as="geometry" />
        </mxCell>
        <mxCell id="lP0ul0niU7gLkVlTcKBf-34" value="N:1" style="text;html=1;align=center;verticalAlign=middle;resizable=0;points=[];autosize=1;strokeColor=none;fillColor=none;fontSize=11;fontFamily=Helvetica;fontColor=default;" vertex="1" parent="1">
          <mxGeometry x="720" y="285" width="40" height="30" as="geometry" />
        </mxCell>
        <mxCell id="lP0ul0niU7gLkVlTcKBf-35" value="0:N" style="text;html=1;align=center;verticalAlign=middle;resizable=0;points=[];autosize=1;strokeColor=none;fillColor=none;fontSize=11;fontFamily=Helvetica;fontColor=default;" vertex="1" parent="1">
          <mxGeometry x="630" y="230" width="40" height="30" as="geometry" />
        </mxCell>
        <mxCell id="lP0ul0niU7gLkVlTcKBf-36" value="N:M" style="text;html=1;align=center;verticalAlign=middle;resizable=0;points=[];autosize=1;strokeColor=none;fillColor=none;fontSize=11;fontFamily=Helvetica;fontColor=default;" vertex="1" parent="1">
          <mxGeometry x="420" y="130" width="40" height="30" as="geometry" />
        </mxCell>
        <mxCell id="lP0ul0niU7gLkVlTcKBf-37" value="1:N" style="text;html=1;align=center;verticalAlign=middle;resizable=0;points=[];autosize=1;strokeColor=none;fillColor=none;fontSize=11;fontFamily=Helvetica;fontColor=default;" vertex="1" parent="1">
          <mxGeometry x="540" y="158" width="40" height="30" as="geometry" />
        </mxCell>
        <mxCell id="lP0ul0niU7gLkVlTcKBf-39" style="edgeStyle=none;shape=connector;rounded=0;orthogonalLoop=1;jettySize=auto;html=1;exitX=0.5;exitY=0;exitDx=0;exitDy=0;entryX=0.5;entryY=1;entryDx=0;entryDy=0;labelBackgroundColor=default;strokeColor=default;align=center;verticalAlign=middle;fontFamily=Helvetica;fontSize=11;fontColor=default;endArrow=none;endFill=0;" edge="1" parent="1" source="lP0ul0niU7gLkVlTcKBf-38" target="lP0ul0niU7gLkVlTcKBf-1">
          <mxGeometry relative="1" as="geometry" />
        </mxCell>
        <mxCell id="lP0ul0niU7gLkVlTcKBf-38" value="&lt;u&gt;ID&lt;/u&gt;" style="ellipse;whiteSpace=wrap;html=1;fontFamily=Helvetica;fontSize=11;fontColor=default;" vertex="1" parent="1">
          <mxGeometry x="140" y="250" width="80" height="40" as="geometry" />
        </mxCell>
      </root>
    </mxGraphModel>
  </diagram>
  <diagram id="R2lEEEUBdFMjLlhIrx00" name="diagram-3">
    <mxGraphModel dx="1493" dy="693" grid="1" gridSize="10" guides="1" tooltips="1" connect="1" arrows="1" fold="1" page="1" pageScale="1" pageWidth="850" pageHeight="1100" math="0" shadow="0" extFonts="Permanent Marker^https://fonts.googleapis.com/css?family=Permanent+Marker">
      <root>
        <mxCell id="0" />
        <mxCell id="1" parent="0" />
        <mxCell id="Gm_OY_w4rKRaWm-D6aFN-16" style="edgeStyle=none;shape=connector;rounded=0;orthogonalLoop=1;jettySize=auto;html=1;exitX=1;exitY=0.5;exitDx=0;exitDy=0;entryX=0;entryY=0.5;entryDx=0;entryDy=0;labelBackgroundColor=default;strokeColor=default;align=center;verticalAlign=middle;fontFamily=Helvetica;fontSize=11;fontColor=default;startArrow=none;startFill=0;endArrow=none;endFill=0;" parent="1" source="Gm_OY_w4rKRaWm-D6aFN-1" target="Gm_OY_w4rKRaWm-D6aFN-2" edge="1">
          <mxGeometry relative="1" as="geometry" />
        </mxCell>
        <mxCell id="Gm_OY_w4rKRaWm-D6aFN-19" style="edgeStyle=none;shape=connector;rounded=0;orthogonalLoop=1;jettySize=auto;html=1;exitX=0.75;exitY=0;exitDx=0;exitDy=0;entryX=0;entryY=1;entryDx=0;entryDy=0;labelBackgroundColor=default;strokeColor=default;align=center;verticalAlign=middle;fontFamily=Helvetica;fontSize=11;fontColor=default;startArrow=none;startFill=0;endArrow=none;endFill=0;" parent="1" source="Gm_OY_w4rKRaWm-D6aFN-1" target="Gm_OY_w4rKRaWm-D6aFN-10" edge="1">
          <mxGeometry relative="1" as="geometry" />
        </mxCell>
        <mxCell id="Gm_OY_w4rKRaWm-D6aFN-21" style="edgeStyle=none;shape=connector;rounded=0;orthogonalLoop=1;jettySize=auto;html=1;exitX=0.25;exitY=1;exitDx=0;exitDy=0;entryX=0.5;entryY=0;entryDx=0;entryDy=0;labelBackgroundColor=default;strokeColor=default;align=center;verticalAlign=middle;fontFamily=Helvetica;fontSize=11;fontColor=default;startArrow=none;startFill=0;endArrow=none;endFill=0;" parent="1" source="Gm_OY_w4rKRaWm-D6aFN-1" target="Gm_OY_w4rKRaWm-D6aFN-8" edge="1">
          <mxGeometry relative="1" as="geometry" />
        </mxCell>
        <mxCell id="Gm_OY_w4rKRaWm-D6aFN-42" style="edgeStyle=none;shape=connector;rounded=0;orthogonalLoop=1;jettySize=auto;html=1;exitX=0.75;exitY=1;exitDx=0;exitDy=0;labelBackgroundColor=default;strokeColor=default;align=center;verticalAlign=middle;fontFamily=Helvetica;fontSize=11;fontColor=default;startArrow=none;startFill=0;endArrow=none;endFill=0;entryX=0.002;entryY=0.541;entryDx=0;entryDy=0;entryPerimeter=0;" parent="1" source="Gm_OY_w4rKRaWm-D6aFN-1" target="Gm_OY_w4rKRaWm-D6aFN-25" edge="1">
          <mxGeometry relative="1" as="geometry">
            <mxPoint x="240" y="230" as="targetPoint" />
          </mxGeometry>
        </mxCell>
        <mxCell id="Gm_OY_w4rKRaWm-D6aFN-1" value="EMPLEADO" style="rounded=1;whiteSpace=wrap;html=1;" parent="1" vertex="1">
          <mxGeometry x="165" y="140" width="90" height="20" as="geometry" />
        </mxCell>
        <mxCell id="Gm_OY_w4rKRaWm-D6aFN-15" style="edgeStyle=none;shape=connector;rounded=0;orthogonalLoop=1;jettySize=auto;html=1;exitX=1;exitY=0.5;exitDx=0;exitDy=0;entryX=0;entryY=0.5;entryDx=0;entryDy=0;labelBackgroundColor=default;strokeColor=default;align=center;verticalAlign=middle;fontFamily=Helvetica;fontSize=11;fontColor=default;startArrow=none;startFill=0;endArrow=none;endFill=0;" parent="1" source="Gm_OY_w4rKRaWm-D6aFN-2" target="Gm_OY_w4rKRaWm-D6aFN-3" edge="1">
          <mxGeometry relative="1" as="geometry" />
        </mxCell>
        <mxCell id="Gm_OY_w4rKRaWm-D6aFN-2" value="TRABAJAN" style="rhombus;whiteSpace=wrap;html=1;" parent="1" vertex="1">
          <mxGeometry x="360" y="120" width="100" height="50" as="geometry" />
        </mxCell>
        <mxCell id="Gm_OY_w4rKRaWm-D6aFN-12" style="rounded=0;orthogonalLoop=1;jettySize=auto;html=1;exitX=0.75;exitY=1;exitDx=0;exitDy=0;entryX=0;entryY=0.5;entryDx=0;entryDy=0;startArrow=none;startFill=0;endArrow=none;endFill=0;" parent="1" source="Gm_OY_w4rKRaWm-D6aFN-3" target="Gm_OY_w4rKRaWm-D6aFN-9" edge="1">
          <mxGeometry relative="1" as="geometry" />
        </mxCell>
        <mxCell id="Gm_OY_w4rKRaWm-D6aFN-3" value="DEPARTAMENTO" style="rounded=1;whiteSpace=wrap;html=1;" parent="1" vertex="1">
          <mxGeometry x="560" y="135" width="120" height="30" as="geometry" />
        </mxCell>
        <mxCell id="Gm_OY_w4rKRaWm-D6aFN-57" style="edgeStyle=none;shape=connector;rounded=0;orthogonalLoop=1;jettySize=auto;html=1;exitX=0;exitY=1;exitDx=0;exitDy=0;entryX=0.75;entryY=0;entryDx=0;entryDy=0;labelBackgroundColor=default;strokeColor=default;align=center;verticalAlign=middle;fontFamily=Helvetica;fontSize=11;fontColor=default;startArrow=none;startFill=0;endArrow=none;endFill=0;" parent="1" source="Gm_OY_w4rKRaWm-D6aFN-7" target="Gm_OY_w4rKRaWm-D6aFN-3" edge="1">
          <mxGeometry relative="1" as="geometry" />
        </mxCell>
        <mxCell id="Gm_OY_w4rKRaWm-D6aFN-7" value="&lt;u&gt;ID&lt;/u&gt;" style="ellipse;whiteSpace=wrap;html=1;" parent="1" vertex="1">
          <mxGeometry x="670" y="60" width="70" height="30" as="geometry" />
        </mxCell>
        <mxCell id="Gm_OY_w4rKRaWm-D6aFN-8" value="CORREO" style="ellipse;whiteSpace=wrap;html=1;" parent="1" vertex="1">
          <mxGeometry x="30" y="160" width="70" height="40" as="geometry" />
        </mxCell>
        <mxCell id="Gm_OY_w4rKRaWm-D6aFN-9" value="NOMBRE" style="ellipse;whiteSpace=wrap;html=1;" parent="1" vertex="1">
          <mxGeometry x="730" y="120" width="70" height="40" as="geometry" />
        </mxCell>
        <mxCell id="Gm_OY_w4rKRaWm-D6aFN-10" value="&lt;u&gt;ID&lt;/u&gt;" style="ellipse;whiteSpace=wrap;html=1;" parent="1" vertex="1">
          <mxGeometry x="165" y="40" width="60" height="40" as="geometry" />
        </mxCell>
        <mxCell id="Gm_OY_w4rKRaWm-D6aFN-11" value="NOMBRE" style="ellipse;whiteSpace=wrap;html=1;" parent="1" vertex="1">
          <mxGeometry x="40" y="80" width="80" height="40" as="geometry" />
        </mxCell>
        <mxCell id="Gm_OY_w4rKRaWm-D6aFN-18" style="edgeStyle=none;shape=connector;rounded=0;orthogonalLoop=1;jettySize=auto;html=1;exitX=1;exitY=0;exitDx=0;exitDy=0;labelBackgroundColor=default;strokeColor=default;align=center;verticalAlign=middle;fontFamily=Helvetica;fontSize=11;fontColor=default;startArrow=none;startFill=0;endArrow=none;endFill=0;" parent="1" source="Gm_OY_w4rKRaWm-D6aFN-1" target="Gm_OY_w4rKRaWm-D6aFN-1" edge="1">
          <mxGeometry relative="1" as="geometry" />
        </mxCell>
        <mxCell id="Gm_OY_w4rKRaWm-D6aFN-20" style="edgeStyle=none;shape=connector;rounded=0;orthogonalLoop=1;jettySize=auto;html=1;exitX=0.25;exitY=0;exitDx=0;exitDy=0;entryX=0.6;entryY=0.991;entryDx=0;entryDy=0;entryPerimeter=0;labelBackgroundColor=default;strokeColor=default;align=center;verticalAlign=middle;fontFamily=Helvetica;fontSize=11;fontColor=default;startArrow=none;startFill=0;endArrow=none;endFill=0;" parent="1" source="Gm_OY_w4rKRaWm-D6aFN-1" target="Gm_OY_w4rKRaWm-D6aFN-11" edge="1">
          <mxGeometry relative="1" as="geometry" />
        </mxCell>
        <mxCell id="Gm_OY_w4rKRaWm-D6aFN-22" value="1:1" style="text;html=1;align=center;verticalAlign=middle;resizable=0;points=[];autosize=1;strokeColor=none;fillColor=none;fontSize=11;fontFamily=Helvetica;fontColor=default;" parent="1" vertex="1">
          <mxGeometry x="480" y="120" width="40" height="30" as="geometry" />
        </mxCell>
        <mxCell id="Gm_OY_w4rKRaWm-D6aFN-23" value="1:N" style="text;html=1;align=center;verticalAlign=middle;resizable=0;points=[];autosize=1;strokeColor=none;fillColor=none;fontSize=11;fontFamily=Helvetica;fontColor=default;" parent="1" vertex="1">
          <mxGeometry x="290" y="120" width="40" height="30" as="geometry" />
        </mxCell>
        <mxCell id="Gm_OY_w4rKRaWm-D6aFN-24" value="N:1" style="text;html=1;align=center;verticalAlign=middle;resizable=0;points=[];autosize=1;strokeColor=none;fillColor=none;fontSize=11;fontFamily=Helvetica;fontColor=default;" parent="1" vertex="1">
          <mxGeometry x="390" y="85" width="40" height="30" as="geometry" />
        </mxCell>
        <mxCell id="Gm_OY_w4rKRaWm-D6aFN-41" style="edgeStyle=none;shape=connector;rounded=0;orthogonalLoop=1;jettySize=auto;html=1;exitX=0.5;exitY=0;exitDx=0;exitDy=0;entryX=0.013;entryY=0.041;entryDx=0;entryDy=0;labelBackgroundColor=default;strokeColor=default;align=center;verticalAlign=middle;fontFamily=Helvetica;fontSize=11;fontColor=default;startArrow=none;startFill=0;endArrow=none;endFill=0;entryPerimeter=0;" parent="1" source="Gm_OY_w4rKRaWm-D6aFN-25" target="Gm_OY_w4rKRaWm-D6aFN-28" edge="1">
          <mxGeometry relative="1" as="geometry" />
        </mxCell>
        <mxCell id="Gm_OY_w4rKRaWm-D6aFN-25" value="" style="triangle;whiteSpace=wrap;html=1;fontFamily=Helvetica;fontSize=11;fontColor=default;direction=south;" parent="1" vertex="1">
          <mxGeometry x="210" y="260" width="50" height="30" as="geometry" />
        </mxCell>
        <mxCell id="Gm_OY_w4rKRaWm-D6aFN-32" style="edgeStyle=none;shape=connector;rounded=0;orthogonalLoop=1;jettySize=auto;html=1;exitX=0.25;exitY=0;exitDx=0;exitDy=0;entryX=0.5;entryY=1;entryDx=0;entryDy=0;labelBackgroundColor=default;strokeColor=default;align=center;verticalAlign=middle;fontFamily=Helvetica;fontSize=11;fontColor=default;startArrow=none;startFill=0;endArrow=none;endFill=0;" parent="1" source="Gm_OY_w4rKRaWm-D6aFN-26" target="Gm_OY_w4rKRaWm-D6aFN-31" edge="1">
          <mxGeometry relative="1" as="geometry" />
        </mxCell>
        <mxCell id="Gm_OY_w4rKRaWm-D6aFN-34" style="edgeStyle=none;shape=connector;rounded=0;orthogonalLoop=1;jettySize=auto;html=1;exitX=0.25;exitY=1;exitDx=0;exitDy=0;entryX=0.5;entryY=0;entryDx=0;entryDy=0;labelBackgroundColor=default;strokeColor=default;align=center;verticalAlign=middle;fontFamily=Helvetica;fontSize=11;fontColor=default;startArrow=none;startFill=0;endArrow=none;endFill=0;" parent="1" source="Gm_OY_w4rKRaWm-D6aFN-26" target="Gm_OY_w4rKRaWm-D6aFN-30" edge="1">
          <mxGeometry relative="1" as="geometry" />
        </mxCell>
        <mxCell id="Gm_OY_w4rKRaWm-D6aFN-51" style="edgeStyle=none;shape=connector;rounded=0;orthogonalLoop=1;jettySize=auto;html=1;exitX=0.75;exitY=1;exitDx=0;exitDy=0;entryX=0.5;entryY=0;entryDx=0;entryDy=0;labelBackgroundColor=default;strokeColor=default;align=center;verticalAlign=middle;fontFamily=Helvetica;fontSize=11;fontColor=default;startArrow=none;startFill=0;endArrow=none;endFill=0;" parent="1" source="Gm_OY_w4rKRaWm-D6aFN-26" target="Gm_OY_w4rKRaWm-D6aFN-43" edge="1">
          <mxGeometry relative="1" as="geometry" />
        </mxCell>
        <mxCell id="Gm_OY_w4rKRaWm-D6aFN-26" value="CONDUCTOR" style="rounded=1;whiteSpace=wrap;html=1;fontFamily=Helvetica;fontSize=11;fontColor=default;" parent="1" vertex="1">
          <mxGeometry x="30" y="390" width="100" height="30" as="geometry" />
        </mxCell>
        <mxCell id="Gm_OY_w4rKRaWm-D6aFN-27" value="ADMINISTRATIVO" style="rounded=1;whiteSpace=wrap;html=1;fontFamily=Helvetica;fontSize=11;fontColor=default;" parent="1" vertex="1">
          <mxGeometry x="210" y="390" width="110" height="30" as="geometry" />
        </mxCell>
        <mxCell id="Gm_OY_w4rKRaWm-D6aFN-66" style="edgeStyle=none;shape=connector;rounded=0;orthogonalLoop=1;jettySize=auto;html=1;exitX=1;exitY=0.5;exitDx=0;exitDy=0;entryX=0;entryY=0.5;entryDx=0;entryDy=0;labelBackgroundColor=default;strokeColor=default;align=center;verticalAlign=middle;fontFamily=Helvetica;fontSize=11;fontColor=default;startArrow=none;startFill=0;endArrow=none;endFill=0;" parent="1" source="Gm_OY_w4rKRaWm-D6aFN-28" target="Gm_OY_w4rKRaWm-D6aFN-60" edge="1">
          <mxGeometry relative="1" as="geometry" />
        </mxCell>
        <mxCell id="Gm_OY_w4rKRaWm-D6aFN-72" style="edgeStyle=none;shape=connector;rounded=0;orthogonalLoop=1;jettySize=auto;html=1;exitX=0.75;exitY=1;exitDx=0;exitDy=0;entryX=0.5;entryY=0;entryDx=0;entryDy=0;labelBackgroundColor=default;strokeColor=default;align=center;verticalAlign=middle;fontFamily=Helvetica;fontSize=11;fontColor=default;startArrow=none;startFill=0;endArrow=none;endFill=0;" parent="1" source="Gm_OY_w4rKRaWm-D6aFN-28" target="Gm_OY_w4rKRaWm-D6aFN-64" edge="1">
          <mxGeometry relative="1" as="geometry" />
        </mxCell>
        <mxCell id="Gm_OY_w4rKRaWm-D6aFN-28" value="TECNICO" style="rounded=1;whiteSpace=wrap;html=1;fontFamily=Helvetica;fontSize=11;fontColor=default;" parent="1" vertex="1">
          <mxGeometry x="380" y="390" width="100" height="30" as="geometry" />
        </mxCell>
        <mxCell id="Gm_OY_w4rKRaWm-D6aFN-30" value="NUM_ACC" style="ellipse;whiteSpace=wrap;html=1;" parent="1" vertex="1">
          <mxGeometry y="450" width="70" height="40" as="geometry" />
        </mxCell>
        <mxCell id="Gm_OY_w4rKRaWm-D6aFN-31" value="&lt;u&gt;COD_PERM&lt;/u&gt;" style="ellipse;whiteSpace=wrap;html=1;" parent="1" vertex="1">
          <mxGeometry y="320" width="90" height="40" as="geometry" />
        </mxCell>
        <mxCell id="Gm_OY_w4rKRaWm-D6aFN-35" style="edgeStyle=none;shape=connector;rounded=0;orthogonalLoop=1;jettySize=auto;html=1;exitX=1;exitY=0.5;exitDx=0;exitDy=0;entryX=0.322;entryY=0;entryDx=0;entryDy=0;entryPerimeter=0;labelBackgroundColor=default;strokeColor=default;align=center;verticalAlign=middle;fontFamily=Helvetica;fontSize=11;fontColor=default;startArrow=none;startFill=0;endArrow=none;endFill=0;" parent="1" source="Gm_OY_w4rKRaWm-D6aFN-25" target="Gm_OY_w4rKRaWm-D6aFN-27" edge="1">
          <mxGeometry relative="1" as="geometry" />
        </mxCell>
        <mxCell id="Gm_OY_w4rKRaWm-D6aFN-37" style="edgeStyle=none;shape=connector;rounded=0;orthogonalLoop=1;jettySize=auto;html=1;exitX=0.5;exitY=1;exitDx=0;exitDy=0;entryX=0.975;entryY=0.033;entryDx=0;entryDy=0;entryPerimeter=0;labelBackgroundColor=default;strokeColor=default;align=center;verticalAlign=middle;fontFamily=Helvetica;fontSize=11;fontColor=default;startArrow=none;startFill=0;endArrow=none;endFill=0;" parent="1" source="Gm_OY_w4rKRaWm-D6aFN-25" target="Gm_OY_w4rKRaWm-D6aFN-26" edge="1">
          <mxGeometry relative="1" as="geometry" />
        </mxCell>
        <mxCell id="Gm_OY_w4rKRaWm-D6aFN-50" style="edgeStyle=none;shape=connector;rounded=0;orthogonalLoop=1;jettySize=auto;html=1;exitX=0.5;exitY=1;exitDx=0;exitDy=0;entryX=0.5;entryY=0;entryDx=0;entryDy=0;labelBackgroundColor=default;strokeColor=default;align=center;verticalAlign=middle;fontFamily=Helvetica;fontSize=11;fontColor=default;startArrow=none;startFill=0;endArrow=none;endFill=0;" parent="1" source="Gm_OY_w4rKRaWm-D6aFN-43" target="Gm_OY_w4rKRaWm-D6aFN-44" edge="1">
          <mxGeometry relative="1" as="geometry" />
        </mxCell>
        <mxCell id="Gm_OY_w4rKRaWm-D6aFN-58" style="edgeStyle=none;shape=connector;rounded=0;orthogonalLoop=1;jettySize=auto;html=1;exitX=1;exitY=0.5;exitDx=0;exitDy=0;entryX=0;entryY=0;entryDx=0;entryDy=0;labelBackgroundColor=default;strokeColor=default;align=center;verticalAlign=middle;fontFamily=Helvetica;fontSize=11;fontColor=default;startArrow=none;startFill=0;endArrow=none;endFill=0;" parent="1" source="Gm_OY_w4rKRaWm-D6aFN-43" target="Gm_OY_w4rKRaWm-D6aFN-55" edge="1">
          <mxGeometry relative="1" as="geometry" />
        </mxCell>
        <mxCell id="Gm_OY_w4rKRaWm-D6aFN-43" value="CONDUCEN" style="rhombus;whiteSpace=wrap;html=1;" parent="1" vertex="1">
          <mxGeometry x="50" y="530" width="110" height="60" as="geometry" />
        </mxCell>
        <mxCell id="Gm_OY_w4rKRaWm-D6aFN-44" value="VEHICULO" style="rounded=1;whiteSpace=wrap;html=1;fontFamily=Helvetica;fontSize=11;fontColor=default;" parent="1" vertex="1">
          <mxGeometry x="60" y="680" width="100" height="30" as="geometry" />
        </mxCell>
        <mxCell id="Gm_OY_w4rKRaWm-D6aFN-45" value="MARCA" style="ellipse;whiteSpace=wrap;html=1;" parent="1" vertex="1">
          <mxGeometry x="155" y="780" width="70" height="40" as="geometry" />
        </mxCell>
        <mxCell id="Gm_OY_w4rKRaWm-D6aFN-46" value="&lt;u&gt;MATRICULA&lt;/u&gt;" style="ellipse;whiteSpace=wrap;html=1;" parent="1" vertex="1">
          <mxGeometry x="10" y="780" width="80" height="40" as="geometry" />
        </mxCell>
        <mxCell id="Gm_OY_w4rKRaWm-D6aFN-47" style="edgeStyle=none;shape=connector;rounded=0;orthogonalLoop=1;jettySize=auto;html=1;exitX=0.25;exitY=1;exitDx=0;exitDy=0;entryX=0.664;entryY=0.026;entryDx=0;entryDy=0;entryPerimeter=0;labelBackgroundColor=default;strokeColor=default;align=center;verticalAlign=middle;fontFamily=Helvetica;fontSize=11;fontColor=default;startArrow=none;startFill=0;endArrow=none;endFill=0;" parent="1" source="Gm_OY_w4rKRaWm-D6aFN-44" target="Gm_OY_w4rKRaWm-D6aFN-46" edge="1">
          <mxGeometry relative="1" as="geometry" />
        </mxCell>
        <mxCell id="Gm_OY_w4rKRaWm-D6aFN-48" style="edgeStyle=none;shape=connector;rounded=0;orthogonalLoop=1;jettySize=auto;html=1;entryX=0.373;entryY=0.024;entryDx=0;entryDy=0;entryPerimeter=0;labelBackgroundColor=default;strokeColor=default;align=center;verticalAlign=middle;fontFamily=Helvetica;fontSize=11;fontColor=default;startArrow=none;startFill=0;endArrow=none;endFill=0;exitX=0.98;exitY=0.978;exitDx=0;exitDy=0;exitPerimeter=0;" parent="1" source="Gm_OY_w4rKRaWm-D6aFN-44" target="Gm_OY_w4rKRaWm-D6aFN-45" edge="1">
          <mxGeometry relative="1" as="geometry">
            <mxPoint x="170" y="710" as="sourcePoint" />
          </mxGeometry>
        </mxCell>
        <mxCell id="Gm_OY_w4rKRaWm-D6aFN-52" value="1:N" style="text;html=1;align=center;verticalAlign=middle;resizable=0;points=[];autosize=1;strokeColor=none;fillColor=none;fontSize=11;fontFamily=Helvetica;fontColor=default;" parent="1" vertex="1">
          <mxGeometry x="100" y="440" width="40" height="30" as="geometry" />
        </mxCell>
        <mxCell id="Gm_OY_w4rKRaWm-D6aFN-53" value="1:N" style="text;html=1;align=center;verticalAlign=middle;resizable=0;points=[];autosize=1;strokeColor=none;fillColor=none;fontSize=11;fontFamily=Helvetica;fontColor=default;" parent="1" vertex="1">
          <mxGeometry x="100" y="630" width="40" height="30" as="geometry" />
        </mxCell>
        <mxCell id="Gm_OY_w4rKRaWm-D6aFN-54" value="N:M" style="text;html=1;align=center;verticalAlign=middle;resizable=0;points=[];autosize=1;strokeColor=none;fillColor=none;fontSize=11;fontFamily=Helvetica;fontColor=default;" parent="1" vertex="1">
          <mxGeometry x="10" y="545" width="40" height="30" as="geometry" />
        </mxCell>
        <mxCell id="Gm_OY_w4rKRaWm-D6aFN-55" value="FECHA_CONDUC" style="ellipse;whiteSpace=wrap;html=1;" parent="1" vertex="1">
          <mxGeometry x="175" y="590" width="120" height="30" as="geometry" />
        </mxCell>
        <mxCell id="Gm_OY_w4rKRaWm-D6aFN-59" value="IDIOMA" style="ellipse;shape=doubleEllipse;margin=3;whiteSpace=wrap;html=1;align=center;fontFamily=Helvetica;fontSize=11;fontColor=default;" parent="1" vertex="1">
          <mxGeometry x="225" y="470" width="65" height="40" as="geometry" />
        </mxCell>
        <mxCell id="Gm_OY_w4rKRaWm-D6aFN-60" value="ESPECIALIDAD" style="ellipse;shape=doubleEllipse;margin=3;whiteSpace=wrap;html=1;align=center;fontFamily=Helvetica;fontSize=11;fontColor=default;" parent="1" vertex="1">
          <mxGeometry x="560" y="390" width="120" height="40" as="geometry" />
        </mxCell>
        <mxCell id="Gm_OY_w4rKRaWm-D6aFN-61" style="edgeStyle=none;shape=connector;rounded=0;orthogonalLoop=1;jettySize=auto;html=1;exitX=1;exitY=0.5;exitDx=0;exitDy=0;labelBackgroundColor=default;strokeColor=default;align=center;verticalAlign=middle;fontFamily=Helvetica;fontSize=11;fontColor=default;startArrow=none;startFill=0;endArrow=none;endFill=0;" parent="1" source="Gm_OY_w4rKRaWm-D6aFN-59" target="Gm_OY_w4rKRaWm-D6aFN-59" edge="1">
          <mxGeometry relative="1" as="geometry" />
        </mxCell>
        <mxCell id="Gm_OY_w4rKRaWm-D6aFN-62" style="edgeStyle=none;shape=connector;rounded=0;orthogonalLoop=1;jettySize=auto;html=1;exitX=0.5;exitY=1;exitDx=0;exitDy=0;entryX=0.557;entryY=-0.004;entryDx=0;entryDy=0;entryPerimeter=0;labelBackgroundColor=default;strokeColor=default;align=center;verticalAlign=middle;fontFamily=Helvetica;fontSize=11;fontColor=default;startArrow=none;startFill=0;endArrow=none;endFill=0;" parent="1" source="Gm_OY_w4rKRaWm-D6aFN-27" target="Gm_OY_w4rKRaWm-D6aFN-59" edge="1">
          <mxGeometry relative="1" as="geometry" />
        </mxCell>
        <mxCell id="Gm_OY_w4rKRaWm-D6aFN-73" style="edgeStyle=none;shape=connector;rounded=0;orthogonalLoop=1;jettySize=auto;html=1;exitX=1;exitY=0.5;exitDx=0;exitDy=0;entryX=0;entryY=0.5;entryDx=0;entryDy=0;labelBackgroundColor=default;strokeColor=default;align=center;verticalAlign=middle;fontFamily=Helvetica;fontSize=11;fontColor=default;startArrow=none;startFill=0;endArrow=none;endFill=0;" parent="1" source="Gm_OY_w4rKRaWm-D6aFN-64" target="Gm_OY_w4rKRaWm-D6aFN-65" edge="1">
          <mxGeometry relative="1" as="geometry" />
        </mxCell>
        <mxCell id="Gm_OY_w4rKRaWm-D6aFN-74" style="edgeStyle=none;shape=connector;rounded=0;orthogonalLoop=1;jettySize=auto;html=1;exitX=0.5;exitY=1;exitDx=0;exitDy=0;entryX=0.5;entryY=0;entryDx=0;entryDy=0;labelBackgroundColor=default;strokeColor=default;align=center;verticalAlign=middle;fontFamily=Helvetica;fontSize=11;fontColor=default;startArrow=none;startFill=0;endArrow=none;endFill=0;" parent="1" source="Gm_OY_w4rKRaWm-D6aFN-64" target="Gm_OY_w4rKRaWm-D6aFN-67" edge="1">
          <mxGeometry relative="1" as="geometry" />
        </mxCell>
        <mxCell id="Gm_OY_w4rKRaWm-D6aFN-64" value="TRABAJAN" style="rhombus;whiteSpace=wrap;html=1;" parent="1" vertex="1">
          <mxGeometry x="420" y="545" width="100" height="50" as="geometry" />
        </mxCell>
        <mxCell id="Gm_OY_w4rKRaWm-D6aFN-65" value="HORAS_TRABAJA" style="ellipse;whiteSpace=wrap;html=1;" parent="1" vertex="1">
          <mxGeometry x="600" y="552.5" width="130" height="35" as="geometry" />
        </mxCell>
        <mxCell id="Gm_OY_w4rKRaWm-D6aFN-75" style="edgeStyle=none;shape=connector;rounded=0;orthogonalLoop=1;jettySize=auto;html=1;exitX=1;exitY=0.25;exitDx=0;exitDy=0;entryX=0;entryY=0.5;entryDx=0;entryDy=0;labelBackgroundColor=default;strokeColor=default;align=center;verticalAlign=middle;fontFamily=Helvetica;fontSize=11;fontColor=default;startArrow=none;startFill=0;endArrow=none;endFill=0;" parent="1" source="Gm_OY_w4rKRaWm-D6aFN-67" target="Gm_OY_w4rKRaWm-D6aFN-68" edge="1">
          <mxGeometry relative="1" as="geometry" />
        </mxCell>
        <mxCell id="Gm_OY_w4rKRaWm-D6aFN-67" value="PROYECTO" style="rounded=1;whiteSpace=wrap;html=1;fontFamily=Helvetica;fontSize=11;fontColor=default;" parent="1" vertex="1">
          <mxGeometry x="430" y="680" width="100" height="30" as="geometry" />
        </mxCell>
        <mxCell id="Gm_OY_w4rKRaWm-D6aFN-68" value="&lt;u&gt;NUM_PROYECTO&lt;/u&gt;" style="ellipse;whiteSpace=wrap;html=1;" parent="1" vertex="1">
          <mxGeometry x="590" y="670" width="130" height="35" as="geometry" />
        </mxCell>
        <mxCell id="Gm_OY_w4rKRaWm-D6aFN-69" value="NOMBRE" style="ellipse;whiteSpace=wrap;html=1;" parent="1" vertex="1">
          <mxGeometry x="600" y="750" width="130" height="35" as="geometry" />
        </mxCell>
        <mxCell id="Gm_OY_w4rKRaWm-D6aFN-70" value="FECHA_COM" style="ellipse;whiteSpace=wrap;html=1;" parent="1" vertex="1">
          <mxGeometry x="480" y="805" width="130" height="35" as="geometry" />
        </mxCell>
        <mxCell id="Gm_OY_w4rKRaWm-D6aFN-71" value="FECHA_FIN" style="ellipse;whiteSpace=wrap;html=1;" parent="1" vertex="1">
          <mxGeometry x="310" y="770" width="130" height="35" as="geometry" />
        </mxCell>
        <mxCell id="Gm_OY_w4rKRaWm-D6aFN-76" style="edgeStyle=none;shape=connector;rounded=0;orthogonalLoop=1;jettySize=auto;html=1;exitX=0.989;exitY=0.947;exitDx=0;exitDy=0;entryX=0.027;entryY=0.354;entryDx=0;entryDy=0;entryPerimeter=0;labelBackgroundColor=default;strokeColor=default;align=center;verticalAlign=middle;fontFamily=Helvetica;fontSize=11;fontColor=default;startArrow=none;startFill=0;endArrow=none;endFill=0;exitPerimeter=0;" parent="1" source="Gm_OY_w4rKRaWm-D6aFN-67" target="Gm_OY_w4rKRaWm-D6aFN-69" edge="1">
          <mxGeometry relative="1" as="geometry" />
        </mxCell>
        <mxCell id="Gm_OY_w4rKRaWm-D6aFN-77" style="edgeStyle=none;shape=connector;rounded=0;orthogonalLoop=1;jettySize=auto;html=1;exitX=0.75;exitY=1;exitDx=0;exitDy=0;entryX=0.291;entryY=0.037;entryDx=0;entryDy=0;entryPerimeter=0;labelBackgroundColor=default;strokeColor=default;align=center;verticalAlign=middle;fontFamily=Helvetica;fontSize=11;fontColor=default;startArrow=none;startFill=0;endArrow=none;endFill=0;" parent="1" source="Gm_OY_w4rKRaWm-D6aFN-67" target="Gm_OY_w4rKRaWm-D6aFN-70" edge="1">
          <mxGeometry relative="1" as="geometry" />
        </mxCell>
        <mxCell id="Gm_OY_w4rKRaWm-D6aFN-78" style="edgeStyle=none;shape=connector;rounded=0;orthogonalLoop=1;jettySize=auto;html=1;exitX=0.047;exitY=0.996;exitDx=0;exitDy=0;entryX=0.829;entryY=0.132;entryDx=0;entryDy=0;entryPerimeter=0;labelBackgroundColor=default;strokeColor=default;align=center;verticalAlign=middle;fontFamily=Helvetica;fontSize=11;fontColor=default;startArrow=none;startFill=0;endArrow=none;endFill=0;exitPerimeter=0;" parent="1" source="Gm_OY_w4rKRaWm-D6aFN-67" target="Gm_OY_w4rKRaWm-D6aFN-71" edge="1">
          <mxGeometry relative="1" as="geometry" />
        </mxCell>
        <mxCell id="Gm_OY_w4rKRaWm-D6aFN-80" value="N:M" style="text;html=1;align=center;verticalAlign=middle;resizable=0;points=[];autosize=1;strokeColor=none;fillColor=none;fontSize=11;fontFamily=Helvetica;fontColor=default;" parent="1" vertex="1">
          <mxGeometry x="380" y="555" width="40" height="30" as="geometry" />
        </mxCell>
        <mxCell id="Gm_OY_w4rKRaWm-D6aFN-81" value="1:N" style="text;html=1;align=center;verticalAlign=middle;resizable=0;points=[];autosize=1;strokeColor=none;fillColor=none;fontSize=11;fontFamily=Helvetica;fontColor=default;" parent="1" vertex="1">
          <mxGeometry x="470" y="620" width="40" height="30" as="geometry" />
        </mxCell>
        <mxCell id="Gm_OY_w4rKRaWm-D6aFN-82" value="1:N" style="text;html=1;align=center;verticalAlign=middle;resizable=0;points=[];autosize=1;strokeColor=none;fillColor=none;fontSize=11;fontFamily=Helvetica;fontColor=default;" parent="1" vertex="1">
          <mxGeometry x="460" y="470" width="40" height="30" as="geometry" />
        </mxCell>
      </root>
    </mxGraphModel>
  </diagram>
  <diagram id="zZ-ViOvkCi0ikE4GA14y" name="diagram-4">
    <mxGraphModel dx="1257" dy="583" grid="1" gridSize="10" guides="1" tooltips="1" connect="1" arrows="1" fold="1" page="1" pageScale="1" pageWidth="827" pageHeight="1169" math="0" shadow="0">
      <root>
        <mxCell id="0" />
        <mxCell id="1" parent="0" />
        <mxCell id="-bALWeZ2K_UsCaeA7Z9U-15" style="shape=connector;rounded=0;orthogonalLoop=1;jettySize=auto;html=1;exitX=0.025;exitY=0.04;exitDx=0;exitDy=0;entryX=1;entryY=1;entryDx=0;entryDy=0;labelBackgroundColor=default;strokeColor=default;align=center;verticalAlign=middle;fontFamily=Helvetica;fontSize=11;fontColor=default;endArrow=none;endFill=0;exitPerimeter=0;" edge="1" parent="1" source="FeKXcWoTEcGVrwjDfz0E-2" target="-bALWeZ2K_UsCaeA7Z9U-3">
          <mxGeometry relative="1" as="geometry" />
        </mxCell>
        <mxCell id="-bALWeZ2K_UsCaeA7Z9U-17" style="edgeStyle=none;shape=connector;rounded=0;orthogonalLoop=1;jettySize=auto;html=1;exitX=0.75;exitY=0;exitDx=0;exitDy=0;entryX=0.5;entryY=1;entryDx=0;entryDy=0;labelBackgroundColor=default;strokeColor=default;align=center;verticalAlign=middle;fontFamily=Helvetica;fontSize=11;fontColor=default;endArrow=none;endFill=0;" edge="1" parent="1" source="FeKXcWoTEcGVrwjDfz0E-2" target="-bALWeZ2K_UsCaeA7Z9U-4">
          <mxGeometry relative="1" as="geometry" />
        </mxCell>
        <mxCell id="-bALWeZ2K_UsCaeA7Z9U-19" style="edgeStyle=none;shape=connector;rounded=0;orthogonalLoop=1;jettySize=auto;html=1;exitX=1;exitY=0.5;exitDx=0;exitDy=0;entryX=0;entryY=0.5;entryDx=0;entryDy=0;labelBackgroundColor=default;strokeColor=default;align=center;verticalAlign=middle;fontFamily=Helvetica;fontSize=11;fontColor=default;endArrow=none;endFill=0;" edge="1" parent="1" source="FeKXcWoTEcGVrwjDfz0E-2" target="-bALWeZ2K_UsCaeA7Z9U-1">
          <mxGeometry relative="1" as="geometry" />
        </mxCell>
        <mxCell id="-bALWeZ2K_UsCaeA7Z9U-22" style="edgeStyle=none;shape=connector;rounded=0;orthogonalLoop=1;jettySize=auto;html=1;exitX=0.5;exitY=1;exitDx=0;exitDy=0;entryX=0.5;entryY=0;entryDx=0;entryDy=0;labelBackgroundColor=default;strokeColor=default;align=center;verticalAlign=middle;fontFamily=Helvetica;fontSize=11;fontColor=default;endArrow=none;endFill=0;" edge="1" parent="1" source="FeKXcWoTEcGVrwjDfz0E-2" target="FeKXcWoTEcGVrwjDfz0E-7">
          <mxGeometry relative="1" as="geometry" />
        </mxCell>
        <mxCell id="FeKXcWoTEcGVrwjDfz0E-2" value="CLIENTE" style="rounded=1;whiteSpace=wrap;html=1;" vertex="1" parent="1">
          <mxGeometry x="520" y="120" width="70" height="40" as="geometry" />
        </mxCell>
        <mxCell id="FeKXcWoTEcGVrwjDfz0E-4" value="PROVEEDOR" style="rounded=1;whiteSpace=wrap;html=1;" vertex="1" parent="1">
          <mxGeometry x="130" y="360" width="90" height="40" as="geometry" />
        </mxCell>
        <mxCell id="-bALWeZ2K_UsCaeA7Z9U-24" style="edgeStyle=none;shape=connector;rounded=0;orthogonalLoop=1;jettySize=auto;html=1;exitX=0.5;exitY=0;exitDx=0;exitDy=0;entryX=0.5;entryY=1;entryDx=0;entryDy=0;labelBackgroundColor=default;strokeColor=default;align=center;verticalAlign=middle;fontFamily=Helvetica;fontSize=11;fontColor=default;endArrow=none;endFill=0;" edge="1" parent="1" source="FeKXcWoTEcGVrwjDfz0E-5" target="FeKXcWoTEcGVrwjDfz0E-7">
          <mxGeometry relative="1" as="geometry" />
        </mxCell>
        <mxCell id="-bALWeZ2K_UsCaeA7Z9U-25" style="edgeStyle=none;shape=connector;rounded=0;orthogonalLoop=1;jettySize=auto;html=1;exitX=1;exitY=0.75;exitDx=0;exitDy=0;entryX=0;entryY=0.5;entryDx=0;entryDy=0;labelBackgroundColor=default;strokeColor=default;align=center;verticalAlign=middle;fontFamily=Helvetica;fontSize=11;fontColor=default;endArrow=none;endFill=0;" edge="1" parent="1" source="FeKXcWoTEcGVrwjDfz0E-5" target="-bALWeZ2K_UsCaeA7Z9U-8">
          <mxGeometry relative="1" as="geometry" />
        </mxCell>
        <mxCell id="FeKXcWoTEcGVrwjDfz0E-5" value="PRODUCTO" style="rounded=1;whiteSpace=wrap;html=1;" vertex="1" parent="1">
          <mxGeometry x="520" y="360" width="80" height="40" as="geometry" />
        </mxCell>
        <mxCell id="-bALWeZ2K_UsCaeA7Z9U-28" style="edgeStyle=none;shape=connector;rounded=0;orthogonalLoop=1;jettySize=auto;html=1;exitX=1;exitY=0.5;exitDx=0;exitDy=0;entryX=0;entryY=0.5;entryDx=0;entryDy=0;labelBackgroundColor=default;strokeColor=default;align=center;verticalAlign=middle;fontFamily=Helvetica;fontSize=11;fontColor=default;endArrow=none;endFill=0;" edge="1" parent="1" source="FeKXcWoTEcGVrwjDfz0E-6" target="FeKXcWoTEcGVrwjDfz0E-5">
          <mxGeometry relative="1" as="geometry" />
        </mxCell>
        <mxCell id="-bALWeZ2K_UsCaeA7Z9U-29" style="edgeStyle=none;shape=connector;rounded=0;orthogonalLoop=1;jettySize=auto;html=1;exitX=0;exitY=0.5;exitDx=0;exitDy=0;labelBackgroundColor=default;strokeColor=default;align=center;verticalAlign=middle;fontFamily=Helvetica;fontSize=11;fontColor=default;endArrow=none;endFill=0;" edge="1" parent="1" source="FeKXcWoTEcGVrwjDfz0E-6">
          <mxGeometry relative="1" as="geometry">
            <mxPoint x="220.00000000000006" y="380.0697674418605" as="targetPoint" />
          </mxGeometry>
        </mxCell>
        <mxCell id="FeKXcWoTEcGVrwjDfz0E-6" value="SUMINISTRA" style="rhombus;whiteSpace=wrap;html=1;" vertex="1" parent="1">
          <mxGeometry x="300" y="360" width="120" height="40" as="geometry" />
        </mxCell>
        <mxCell id="-bALWeZ2K_UsCaeA7Z9U-44" style="edgeStyle=none;shape=connector;rounded=0;orthogonalLoop=1;jettySize=auto;html=1;exitX=1;exitY=0.5;exitDx=0;exitDy=0;entryX=0;entryY=0.5;entryDx=0;entryDy=0;labelBackgroundColor=default;strokeColor=default;align=center;verticalAlign=middle;fontFamily=Helvetica;fontSize=11;fontColor=default;endArrow=none;endFill=0;" edge="1" parent="1" source="FeKXcWoTEcGVrwjDfz0E-7" target="-bALWeZ2K_UsCaeA7Z9U-43">
          <mxGeometry relative="1" as="geometry" />
        </mxCell>
        <mxCell id="FeKXcWoTEcGVrwjDfz0E-7" value="COMPRAN" style="rhombus;whiteSpace=wrap;html=1;" vertex="1" parent="1">
          <mxGeometry x="502" y="240" width="106" height="40" as="geometry" />
        </mxCell>
        <mxCell id="FeKXcWoTEcGVrwjDfz0E-8" value="DIRECCION" style="ellipse;whiteSpace=wrap;html=1;" vertex="1" parent="1">
          <mxGeometry x="640" y="170" width="90" height="30" as="geometry" />
        </mxCell>
        <mxCell id="-bALWeZ2K_UsCaeA7Z9U-1" value="FECHA_NAC" style="ellipse;whiteSpace=wrap;html=1;" vertex="1" parent="1">
          <mxGeometry x="630" y="120" width="100" height="30" as="geometry" />
        </mxCell>
        <mxCell id="-bALWeZ2K_UsCaeA7Z9U-2" value="&lt;u&gt;DNI&lt;/u&gt;" style="ellipse;whiteSpace=wrap;html=1;" vertex="1" parent="1">
          <mxGeometry x="650" y="70" width="50" height="30" as="geometry" />
        </mxCell>
        <mxCell id="-bALWeZ2K_UsCaeA7Z9U-3" value="NOMBRE" style="ellipse;whiteSpace=wrap;html=1;" vertex="1" parent="1">
          <mxGeometry x="440" y="60" width="70" height="30" as="geometry" />
        </mxCell>
        <mxCell id="-bALWeZ2K_UsCaeA7Z9U-4" value="APELLIDOS" style="ellipse;whiteSpace=wrap;html=1;" vertex="1" parent="1">
          <mxGeometry x="540" y="60" width="90" height="30" as="geometry" />
        </mxCell>
        <mxCell id="-bALWeZ2K_UsCaeA7Z9U-27" style="edgeStyle=none;shape=connector;rounded=0;orthogonalLoop=1;jettySize=auto;html=1;exitX=1;exitY=0;exitDx=0;exitDy=0;entryX=0.25;entryY=1;entryDx=0;entryDy=0;labelBackgroundColor=default;strokeColor=default;align=center;verticalAlign=middle;fontFamily=Helvetica;fontSize=11;fontColor=default;endArrow=none;endFill=0;" edge="1" parent="1" source="-bALWeZ2K_UsCaeA7Z9U-6" target="FeKXcWoTEcGVrwjDfz0E-5">
          <mxGeometry relative="1" as="geometry" />
        </mxCell>
        <mxCell id="-bALWeZ2K_UsCaeA7Z9U-6" value="PRECIO_UNIT" style="ellipse;whiteSpace=wrap;html=1;" vertex="1" parent="1">
          <mxGeometry x="450" y="450" width="100" height="30" as="geometry" />
        </mxCell>
        <mxCell id="-bALWeZ2K_UsCaeA7Z9U-7" value="&lt;u&gt;CODIGO&lt;/u&gt;" style="ellipse;whiteSpace=wrap;html=1;" vertex="1" parent="1">
          <mxGeometry x="590" y="450" width="70" height="30" as="geometry" />
        </mxCell>
        <mxCell id="-bALWeZ2K_UsCaeA7Z9U-8" value="NOMBRE" style="ellipse;whiteSpace=wrap;html=1;" vertex="1" parent="1">
          <mxGeometry x="660" y="390" width="70" height="30" as="geometry" />
        </mxCell>
        <mxCell id="-bALWeZ2K_UsCaeA7Z9U-32" style="edgeStyle=none;shape=connector;rounded=0;orthogonalLoop=1;jettySize=auto;html=1;exitX=0.5;exitY=0;exitDx=0;exitDy=0;entryX=0.75;entryY=1;entryDx=0;entryDy=0;labelBackgroundColor=default;strokeColor=default;align=center;verticalAlign=middle;fontFamily=Helvetica;fontSize=11;fontColor=default;endArrow=none;endFill=0;" edge="1" parent="1" source="-bALWeZ2K_UsCaeA7Z9U-9" target="FeKXcWoTEcGVrwjDfz0E-4">
          <mxGeometry relative="1" as="geometry" />
        </mxCell>
        <mxCell id="-bALWeZ2K_UsCaeA7Z9U-9" value="DIRECCION" style="ellipse;whiteSpace=wrap;html=1;" vertex="1" parent="1">
          <mxGeometry x="175" y="480" width="85" height="30" as="geometry" />
        </mxCell>
        <mxCell id="-bALWeZ2K_UsCaeA7Z9U-10" value="NOMBRE" style="ellipse;whiteSpace=wrap;html=1;" vertex="1" parent="1">
          <mxGeometry x="245" y="450" width="70" height="30" as="geometry" />
        </mxCell>
        <mxCell id="-bALWeZ2K_UsCaeA7Z9U-11" value="&lt;u&gt;CIF&lt;/u&gt;" style="ellipse;whiteSpace=wrap;html=1;" vertex="1" parent="1">
          <mxGeometry x="120" y="440" width="70" height="30" as="geometry" />
        </mxCell>
        <mxCell id="-bALWeZ2K_UsCaeA7Z9U-18" style="edgeStyle=none;shape=connector;rounded=0;orthogonalLoop=1;jettySize=auto;html=1;exitX=0.972;exitY=0.04;exitDx=0;exitDy=0;entryX=0.04;entryY=0.704;entryDx=0;entryDy=0;entryPerimeter=0;labelBackgroundColor=default;strokeColor=default;align=center;verticalAlign=middle;fontFamily=Helvetica;fontSize=11;fontColor=default;endArrow=none;endFill=0;exitPerimeter=0;" edge="1" parent="1" source="FeKXcWoTEcGVrwjDfz0E-2" target="-bALWeZ2K_UsCaeA7Z9U-2">
          <mxGeometry relative="1" as="geometry" />
        </mxCell>
        <mxCell id="-bALWeZ2K_UsCaeA7Z9U-21" style="edgeStyle=none;shape=connector;rounded=0;orthogonalLoop=1;jettySize=auto;html=1;exitX=0;exitY=0.5;exitDx=0;exitDy=0;entryX=0.979;entryY=0.947;entryDx=0;entryDy=0;entryPerimeter=0;labelBackgroundColor=default;strokeColor=default;align=center;verticalAlign=middle;fontFamily=Helvetica;fontSize=11;fontColor=default;endArrow=none;endFill=0;" edge="1" parent="1" source="FeKXcWoTEcGVrwjDfz0E-8" target="FeKXcWoTEcGVrwjDfz0E-2">
          <mxGeometry relative="1" as="geometry" />
        </mxCell>
        <mxCell id="-bALWeZ2K_UsCaeA7Z9U-26" style="edgeStyle=none;shape=connector;rounded=0;orthogonalLoop=1;jettySize=auto;html=1;exitX=0.961;exitY=0.987;exitDx=0;exitDy=0;entryX=0.404;entryY=0.006;entryDx=0;entryDy=0;entryPerimeter=0;labelBackgroundColor=default;strokeColor=default;align=center;verticalAlign=middle;fontFamily=Helvetica;fontSize=11;fontColor=default;endArrow=none;endFill=0;exitPerimeter=0;" edge="1" parent="1" source="FeKXcWoTEcGVrwjDfz0E-5" target="-bALWeZ2K_UsCaeA7Z9U-7">
          <mxGeometry relative="1" as="geometry" />
        </mxCell>
        <mxCell id="-bALWeZ2K_UsCaeA7Z9U-30" style="edgeStyle=none;shape=connector;rounded=0;orthogonalLoop=1;jettySize=auto;html=1;exitX=0.5;exitY=0;exitDx=0;exitDy=0;entryX=0.322;entryY=0.987;entryDx=0;entryDy=0;entryPerimeter=0;labelBackgroundColor=default;strokeColor=default;align=center;verticalAlign=middle;fontFamily=Helvetica;fontSize=11;fontColor=default;endArrow=none;endFill=0;" edge="1" parent="1" source="-bALWeZ2K_UsCaeA7Z9U-11" target="FeKXcWoTEcGVrwjDfz0E-4">
          <mxGeometry relative="1" as="geometry" />
        </mxCell>
        <mxCell id="-bALWeZ2K_UsCaeA7Z9U-31" style="edgeStyle=none;shape=connector;rounded=0;orthogonalLoop=1;jettySize=auto;html=1;exitX=0;exitY=0;exitDx=0;exitDy=0;entryX=0.983;entryY=0.952;entryDx=0;entryDy=0;entryPerimeter=0;labelBackgroundColor=default;strokeColor=default;align=center;verticalAlign=middle;fontFamily=Helvetica;fontSize=11;fontColor=default;endArrow=none;endFill=0;" edge="1" parent="1" source="-bALWeZ2K_UsCaeA7Z9U-10" target="FeKXcWoTEcGVrwjDfz0E-4">
          <mxGeometry relative="1" as="geometry" />
        </mxCell>
        <mxCell id="-bALWeZ2K_UsCaeA7Z9U-33" value="1:N" style="text;html=1;align=center;verticalAlign=middle;resizable=0;points=[];autosize=1;strokeColor=none;fillColor=none;fontSize=11;fontFamily=Helvetica;fontColor=default;" vertex="1" parent="1">
          <mxGeometry x="550" y="300" width="40" height="30" as="geometry" />
        </mxCell>
        <mxCell id="-bALWeZ2K_UsCaeA7Z9U-34" value="1:N" style="text;html=1;align=center;verticalAlign=middle;resizable=0;points=[];autosize=1;strokeColor=none;fillColor=none;fontSize=11;fontFamily=Helvetica;fontColor=default;" vertex="1" parent="1">
          <mxGeometry x="520" y="180" width="40" height="30" as="geometry" />
        </mxCell>
        <mxCell id="-bALWeZ2K_UsCaeA7Z9U-35" value="N:M" style="text;html=1;align=center;verticalAlign=middle;resizable=0;points=[];autosize=1;strokeColor=none;fillColor=none;fontSize=11;fontFamily=Helvetica;fontColor=default;" vertex="1" parent="1">
          <mxGeometry x="462" y="245" width="40" height="30" as="geometry" />
        </mxCell>
        <mxCell id="-bALWeZ2K_UsCaeA7Z9U-36" value="1:N" style="text;html=1;align=center;verticalAlign=middle;resizable=0;points=[];autosize=1;strokeColor=none;fillColor=none;fontSize=11;fontFamily=Helvetica;fontColor=default;" vertex="1" parent="1">
          <mxGeometry x="340" y="330" width="40" height="30" as="geometry" />
        </mxCell>
        <mxCell id="-bALWeZ2K_UsCaeA7Z9U-38" value="1:N" style="text;html=1;align=center;verticalAlign=middle;resizable=0;points=[];autosize=1;strokeColor=none;fillColor=none;fontSize=11;fontFamily=Helvetica;fontColor=default;" vertex="1" parent="1">
          <mxGeometry x="455" y="350" width="40" height="30" as="geometry" />
        </mxCell>
        <mxCell id="-bALWeZ2K_UsCaeA7Z9U-39" value="1:1" style="text;html=1;align=center;verticalAlign=middle;resizable=0;points=[];autosize=1;strokeColor=none;fillColor=none;fontSize=11;fontFamily=Helvetica;fontColor=default;" vertex="1" parent="1">
          <mxGeometry x="240" y="350" width="40" height="30" as="geometry" />
        </mxCell>
        <mxCell id="-bALWeZ2K_UsCaeA7Z9U-43" value="CANTIDAD_PROD" style="ellipse;whiteSpace=wrap;html=1;" vertex="1" parent="1">
          <mxGeometry x="670" y="245" width="120" height="30" as="geometry" />
        </mxCell>
      </root>
    </mxGraphModel>
  </diagram>
  <diagram id="0C-MnZhzLZYdzCcOobZP" name="diagram-5">
    <mxGraphModel dx="1194" dy="554" grid="1" gridSize="10" guides="1" tooltips="1" connect="1" arrows="1" fold="1" page="1" pageScale="1" pageWidth="827" pageHeight="1169" math="0" shadow="0">
      <root>
        <mxCell id="0" />
        <mxCell id="1" parent="0" />
      </root>
    </mxGraphModel>
  </diagram>
</mxfile>
